Coordinates
version=1
nRows=16
nColumns=40
inDegrees=yes

Units are S.I. units (second, meters, Newtons, ...)
Angles are in degrees.

endheader
time	pelvis_tilt	pelvis_list	pelvis_rotation	pelvis_tx	pelvis_ty	pelvis_tz	hip_flexion_r	hip_adduction_r	hip_rotation_r	knee_angle_r	knee_angle_r_beta	ankle_angle_r	subtalar_angle_r	mtp_angle_r	hip_flexion_l	hip_adduction_l	hip_rotation_l	knee_angle_l	knee_angle_l_beta	ankle_angle_l	subtalar_angle_l	mtp_angle_l	lumbar_extension	lumbar_bending	lumbar_rotation	arm_flex_r	arm_add_r	arm_rot_r	elbow_flex_r	pro_sup_r	wrist_flex_r	wrist_dev_r	arm_flex_l	arm_add_l	arm_rot_l	elbow_flex_l	pro_sup_l	wrist_flex_l	wrist_dev_l
     51.24000000	     -2.70777635	     -5.64258270	      1.16654005	      1.03093220	      0.91981327	      0.40019213	     28.14385560	     -5.84422531	     -0.54049955	     74.08210744	     74.08210744	      4.41052137	    -17.79369961	      6.40118512	     22.51772659	     -4.80470528	     -2.33707582	     32.04622236	     32.04622236	     15.32613709	    -16.74838407	      2.90539637	    -11.41876793	      5.72150819	      2.52415554	     25.32004275	    -11.81723692	     -5.55017459	     41.05703817	     44.84110081	      0.00000000	      0.00000000	     17.62014294	    -13.06316570	     15.99179934	     36.82879166	     44.71590215	      0.00000000	      0.00000000
     51.26021429	     -2.48785539	     -5.56014369	      0.89060503	      1.03089761	      0.91824919	      0.39828544	     29.11092869	     -6.53170874	     -1.04627285	     73.98519492	     73.98519492	      4.49551264	    -18.31129360	      6.85337392	     22.37851707	     -4.63413263	     -2.38949438	     32.88940131	     32.88940131	     15.90709995	    -17.13638874	      2.74499816	    -11.49491024	      5.82837083	      2.84017810	     21.28858880	    -11.93664260	     -5.37617637	     38.75860027	     44.90929781	      0.00000000	      0.00000000	     19.34469569	    -13.02289409	     15.52741502	     38.61819228	     44.81432549	      0.00000000	      0.00000000
     51.28042857	     -2.21575158	     -5.46751088	      0.59152429	      1.03089520	      0.91711720	      0.39648282	     29.97645778	     -7.22605988	     -1.63541516	     73.40366128	     73.40366128	      4.80549988	    -18.65204344	      7.64208076	     22.07021639	     -4.46701507	     -2.51824428	     33.56399538	     33.56399538	     16.52908773	    -17.45739682	      2.86579337	    -11.72922360	      5.89655683	      3.23069019	     17.32733746	    -11.99674204	     -5.17567422	     36.07609009	     44.99527527	      0.00000000	      0.00000000	     20.96108375	    -13.04986784	     14.84360486	     41.02506582	     44.94246016	      0.00000000	      0.00000000
     51.30064286	     -2.00783433	     -5.39497247	      0.22499194	      1.03081518	      0.91627182	      0.39492579	     30.86415886	     -7.76645119	     -2.15476171	     72.24062130	     72.24062130	      5.16973347	    -18.80972058	      8.28359032	     21.71036086	     -4.32516159	     -2.63020126	     34.03036555	     34.03036555	     17.16918348	    -17.67062049	      3.04371423	    -11.93725680	      6.02447893	      3.59141210	     13.51311425	    -11.99518030	     -4.99076729	     33.25930237	     45.08755762	      0.00000000	      0.00000000	     22.52066946	    -13.12065201	     14.06569874	     43.57341708	     45.07684567	      0.00000000	      0.00000000
     51.32085714	     -1.86804940	     -5.34342410	     -0.17466522	      1.03071265	      0.91605003	      0.39374929	     31.64263448	     -8.15742677	     -2.75789615	     70.26098511	     70.26098511	      5.66538191	    -18.85465012	      8.98129964	     21.31023981	     -4.23377976	     -2.83666326	     34.31260948	     34.31260948	     18.04898200	    -17.72632338	      4.22341588	    -12.08539545	      6.15919117	      2.67613833	     11.53128335	    -11.28453348	     -4.95672438	     28.22653599	     45.36091607	      0.00000000	      0.00000000	     22.40318810	    -14.23701402	     11.75718098	     48.88418946	     45.42358216	      0.00000000	      0.00000000
     51.34107143	     -1.80422891	     -5.34713230	     -0.66153057	      1.03056807	      0.91646578	      0.39309529	     32.24517979	     -8.26974517	     -3.35328293	     67.34734079	     67.34734079	      5.94811441	    -18.78907340	      8.68008111	     20.75604591	     -4.28228109	     -3.21519773	     34.13335078	     34.13335078	     18.34395176	    -17.76475407	      4.20410657	    -12.22026244	      6.31731392	      3.09534018	      7.97246133	    -11.34811392	     -4.90319021	     26.12737080	     45.43292975	      0.00000000	      0.00000000	     24.14611616	    -14.29251741	     11.03454134	     50.68304953	     45.53885891	      0.00000000	      0.00000000
     51.36128571	     -1.86743786	     -5.32154541	     -1.19978345	      1.03041015	      0.91740766	      0.39287964	     32.55141246	     -8.30430092	     -4.06655684	     63.26289748	     63.26289748	      4.97550226	    -18.73663034	      4.11085333	     20.15065043	     -4.33343865	     -3.70422174	     33.59281332	     33.59281332	     18.41098347	    -17.76932748	      3.97483939	    -12.25282927	      6.40286738	      2.63730888	      5.41781092	    -11.08052568	     -5.39075744	     23.47848426	     45.66986904	      0.00000000	      0.00000000	     24.62735107	    -15.07224370	      9.13647915	     54.53824467	     45.82445523	      0.00000000	      0.00000000
     51.38150000	     -2.01130151	     -5.33719068	     -1.79338466	      1.03024725	      0.91891691	      0.39323119	     32.58485129	     -7.99780801	     -4.68909571	     58.26212308	     58.26212308	      3.97549349	    -18.46186827	     -0.21632233	     19.45915598	     -4.46790514	     -4.25833511	     32.73223112	     32.73223112	     18.28173743	    -17.72788988	      3.62372391	    -12.23379935	      6.48728709	      2.55608451	      2.50377590	    -11.06199932	     -5.94781937	     22.06060582	     45.86443257	      0.00000000	      0.00000000	     25.60688827	    -15.68298626	      7.96063738	     57.36052987	     46.02997223	      0.00000000	      0.00000000
     51.40171429	     -2.22578993	     -5.36855417	     -2.40605658	      1.03013522	      0.92076504	      0.39410207	     32.28610141	     -7.42346018	     -5.19451312	     52.42968178	     52.42968178	      2.82537784	    -17.82556726	     -4.66445944	     18.69960458	     -4.64861096	     -4.88195780	     31.59903942	     31.59903942	     18.00086331	    -17.62930174	      3.09157018	    -12.14579975	      6.54717411	      2.37288118	     -0.38547218	    -11.13167476	     -6.58550328	     21.39654331	     46.03501963	      0.00000000	      0.00000000	     26.51746403	    -16.48145578	      6.97944350	     60.21447969	     46.21454551	      0.00000000	      0.00000000
     51.42192857	     -2.47615929	     -5.40013202	     -3.03721465	      1.03012961	      0.92280451	      0.39546623	     31.79114273	     -6.62288654	     -5.47765448	     46.33521574	     46.33521574	      2.95291638	    -15.82099024	     -4.84476514	     17.91078733	     -4.84751095	     -5.53571856	     30.37815546	     30.37815546	     17.90993964	    -17.40468361	      3.18222616	    -11.95758129	      6.55050606	      2.35060314	     -3.06000007	    -11.30776508	     -6.73916603	     20.61505526	     46.07482177	      0.00000000	      0.00000000	     27.90811907	    -17.17384714	      6.40154051	     61.81778418	     46.29924653	      0.00000000	      0.00000000
     51.44214286	     -2.67486677	     -5.32758005	     -3.63138967	      1.03029247	      0.92490298	      0.39706619	     30.92234486	     -5.95536099	     -5.81079315	     39.93922421	     39.93922421	      2.79798727	    -12.72259066	     -5.07222677	     16.99831695	     -4.92768541	     -6.21565201	     29.02508995	     29.02508995	     17.67632625	    -17.12290876	      3.06504877	    -11.86199608	      6.43371523	      2.26719450	     -5.65994785	    -11.54805418	     -7.02510362	     20.25015197	     46.10663960	      0.00000000	      0.00000000	     29.06044186	    -17.89000939	      5.79201284	     63.88763946	     46.39339645	      0.00000000	      0.00000000
     51.46235714	     -2.91644041	     -5.09654465	     -4.18673726	      1.03075087	      0.92645734	      0.39891152	     29.97976405	     -5.48526823	     -6.18619365	     33.74336570	     33.74336570	      2.43658410	     -8.87837027	     -5.26451875	     16.04623858	     -4.85486417	     -7.02067615	     27.47288838	     27.47288838	     16.76620625	    -17.00754774	      1.19594119	    -11.73157390	      6.09853735	      1.67053922	     -8.50312051	    -11.76819627	     -8.25350594	     22.13708044	     46.16781004	      0.00000000	      0.00000000	     29.18671672	    -19.17052011	      4.46816020	     68.17334187	     46.60912591	      0.00000000	      0.00000000
     51.48257143	     -3.04772032	     -4.78891463	     -4.68985995	      1.03144664	      0.92777153	      0.40093926	     29.05421630	     -5.12908527	     -6.48904700	     28.42799487	     28.42799487	      3.02915960	     -4.45454797	     -1.68258505	     15.04214163	     -4.67837101	     -7.79380938	     26.07001689	     26.07001689	     16.17094472	    -16.78115003	     -0.05636440	    -11.62068243	      5.67020530	      1.36566074	    -10.94294866	    -11.99120194	     -9.23242712	     23.13887725	     46.23963703	      0.00000000	      0.00000000	     30.05907434	    -19.98482427	      3.54500913	     70.68096208	     46.78629685	      0.00000000	      0.00000000
     51.50278571	     -3.11326722	     -4.40119157	     -5.12043468	      1.03239663	      0.92866861	      0.40306061	     28.30263433	     -4.95517040	     -6.78224449	     24.23086382	     24.23086382	      3.97189413	     -0.35745868	      3.35774931	     14.03817085	     -4.39366354	     -8.50429333	     24.79526520	     24.79526520	     15.70556640	    -16.51054448	     -1.13398775	    -11.52937942	      5.17481207	      1.08277415	    -13.21897289	    -12.24827718	    -10.25125832	     24.24994999	     46.29634647	      0.00000000	      0.00000000	     30.93791837	    -20.65771364	      2.73500609	     72.95396282	     46.96007561	      0.00000000	      0.00000000
     51.52300000	     -3.24939853	     -3.95232781	     -5.48763898	      1.03349193	      0.92899138	      0.40535899	     27.64761816	     -4.79121670	     -6.69838565	     20.62498419	     20.62498419	      3.49026952	      2.03832879	      4.69656366	     13.28818354	     -4.05863009	     -9.13382516	     23.86801428	     23.86801428	     15.74387328	    -16.07515483	     -1.20084217	    -11.22163049	      4.60862082	      0.84680434	    -14.67647630	    -12.41605131	    -10.42592178	     24.04794461	     46.30868740	      0.00000000	      0.00000000	     32.15987951	    -21.07592394	      2.33087087	     74.04431981	     47.02122405	      0.00000000	      0.00000000
     51.54321429	     -3.11878162	     -3.47391018	     -5.82367758	      1.03494541	      0.92932669	      0.40757718	     27.23827756	     -4.99677186	     -7.24632454	     18.83095272	     18.83095272	      4.65395339	      5.08700960	      9.62930935	     12.16964897	     -3.63812224	     -9.78794347	     22.76748851	     22.76748851	     15.16869559	    -15.88426914	     -2.87284897	    -11.36474478	      4.04124444	      0.49469551	    -16.65298441	    -12.70811709	    -11.84509068	     26.34686892	     46.31952684	      0.00000000	      0.00000000	     32.58995460	    -21.50098880	      0.82195702	     76.92473015	     47.24517090	      0.00000000	      0.00000000
